<?xml version="1.0" encoding="UTF-8"?>
<svg width="200" height="60" viewBox="0 0 200 60" xmlns="http://www.w3.org/2000/svg">
  <defs>
    <!-- 그라디언트 정의 -->
    <linearGradient id="primaryGradient" x1="0%" y1="0%" x2="100%" y2="100%">
      <stop offset="0%" style="stop-color:#3B82F6;stop-opacity:1" />
      <stop offset="100%" style="stop-color:#1E40AF;stop-opacity:1" />
    </linearGradient>
    
    <linearGradient id="accentGradient" x1="0%" y1="0%" x2="100%" y2="100%">
      <stop offset="0%" style="stop-color:#10B981;stop-opacity:1" />
      <stop offset="100%" style="stop-color:#059669;stop-opacity:1" />
    </linearGradient>
    
    <!-- 그림자 필터 -->
    <filter id="shadow" x="-20%" y="-20%" width="140%" height="140%">
      <feDropShadow dx="2" dy="2" stdDeviation="2" flood-color="#000000" flood-opacity="0.2"/>
    </filter>
  </defs>
  
  <!-- 배경 원형 요소들 (기술적 느낌) -->
  <circle cx="15" cy="15" r="3" fill="url(#accentGradient)" opacity="0.6">
    <animate attributeName="opacity" values="0.6;1;0.6" dur="2s" repeatCount="indefinite"/>
  </circle>
  <circle cx="25" cy="25" r="2" fill="url(#primaryGradient)" opacity="0.4">
    <animate attributeName="opacity" values="0.4;0.8;0.4" dur="3s" repeatCount="indefinite"/>
  </circle>
  
  <!-- 메인 아이콘 (기어와 회로 결합) -->
  <g transform="translate(10, 10)">
    <!-- 외부 기어 -->
    <path d="M20 5 L22 7 L25 5 L27 7 L30 10 L28 12 L30 15 L27 17 L25 20 L22 18 L20 20 L18 18 L15 20 L13 18 L10 15 L12 13 L10 10 L13 8 L15 5 L18 7 Z" 
          fill="url(#primaryGradient)" 
          filter="url(#shadow)">
      <animateTransform attributeName="transform" 
                        attributeType="XML" 
                        type="rotate" 
                        from="0 20 12.5" 
                        to="360 20 12.5" 
                        dur="8s" 
                        repeatCount="indefinite"/>
    </path>
    
    <!-- 내부 원 -->
    <circle cx="20" cy="12.5" r="6" fill="url(#accentGradient)">
      <animateTransform attributeName="transform" 
                        attributeType="XML" 
                        type="rotate" 
                        from="360 20 12.5" 
                        to="0 20 12.5" 
                        dur="6s" 
                        repeatCount="indefinite"/>
    </circle>
    
    <!-- 중앙 점 -->
    <circle cx="20" cy="12.5" r="2" fill="#FFFFFF"/>
    
    <!-- 회로 패턴 -->
    <path d="M26 12.5 L35 12.5 M35 10 L35 15 M33 8 L37 8 M33 17 L37 17" 
          stroke="url(#accentGradient)" 
          stroke-width="1.5" 
          fill="none" 
          opacity="0.8">
      <animate attributeName="opacity" values="0.8;1;0.8" dur="1.5s" repeatCount="indefinite"/>
    </path>
  </g>
  
  <!-- SMART 텍스트 -->
  <text x="55" y="25" font-family="Arial, sans-serif" font-size="18" font-weight="bold" fill="url(#primaryGradient)">
    SMART
  </text>
  
  <!-- MES 텍스트 -->
  <text x="55" y="45" font-family="Arial, sans-serif" font-size="16" font-weight="600" fill="url(#accentGradient)">
    MES
  </text>
  
  <!-- 부제목 -->
  <text x="100" y="35" font-family="Arial, sans-serif" font-size="8" fill="#6B7280" opacity="0.8">
    Manufacturing Execution System
  </text>
  
  <!-- 장식적 라인들 -->
  <line x1="140" y1="20" x2="180" y2="20" stroke="url(#primaryGradient)" stroke-width="2" opacity="0.6">
    <animate attributeName="opacity" values="0.6;1;0.6" dur="2s" repeatCount="indefinite"/>
  </line>
  <line x1="145" y1="25" x2="175" y2="25" stroke="url(#accentGradient)" stroke-width="1.5" opacity="0.4">
    <animate attributeName="opacity" values="0.4;0.8;0.4" dur="2.5s" repeatCount="indefinite"/>
  </line>
  <line x1="150" y1="30" x2="170" y2="30" stroke="url(#primaryGradient)" stroke-width="1" opacity="0.5">
    <animate attributeName="opacity" values="0.5;0.9;0.5" dur="3s" repeatCount="indefinite"/>
  </line>
  
  <!-- 기술적 점들 -->
  <circle cx="185" cy="15" r="1.5" fill="url(#accentGradient)" opacity="0.7">
    <animate attributeName="opacity" values="0.7;1;0.7" dur="1.8s" repeatCount="indefinite"/>
  </circle>
  <circle cx="190" cy="20" r="1" fill="url(#primaryGradient)" opacity="0.5">
    <animate attributeName="opacity" values="0.5;0.9;0.5" dur="2.2s" repeatCount="indefinite"/>
  </circle>
  <circle cx="195" cy="25" r="1.2" fill="url(#accentGradient)" opacity="0.6">
    <animate attributeName="opacity" values="0.6;1;0.6" dur="2.8s" repeatCount="indefinite"/>
  </circle>
</svg> 